<!-- Simple static WhatsApp logo - save as assets/whatsapp.svg -->
<svg xmlns="http://www.w3.org/2000/svg" viewBox="0 0 24 24" width="24" height="24">
  <path fill="#25D366" d="M20.52 3.48A11.86 11.86 0 0 0 12 0C5.373 0 .07 4.925.07 11.01c0 1.938.497 3.83 1.44 5.48L0 24l7.67-1.99A11.9 11.9 0 0 0 12 22c6.627 0 11.93-4.925 11.93-10.99 0-2.98-1.18-5.8-3.41-7.53z"/>
  <path fill="#fff" d="M17.14 14.03c-.28-.14-1.64-.81-1.9-.9-.27-.09-.47-.14-.67.14-.2.28-.78.9-.96 1.08-.18.18-.36.2-.66.07-.3-.14-1.27-.47-2.42-1.49-.9-.8-1.5-1.78-1.67-2.08-.17-.3-.02-.46.12-.6.13-.12.3-.32.45-.48.14-.16.19-.27.28-.45.09-.18.05-.34-.02-.49-.07-.14-.67-1.6-.92-2.2-.24-.57-.49-.49-.67-.5l-.56-.01c-.19 0-.5.07-.76.34-.26.27-1 1-1 2.4 0 1.4 1.03 2.75 1.17 2.95.14.18 2.02 3.1 4.9 4.34 1.3.53 1.93.7 2.6.9.65.19 1.25.16 1.72.1.52-.07 1.64-.67 1.87-1.32.22-.65.22-1.2.15-1.32-.07-.12-.27-.19-.56-.33z"/>
</svg>
